<svg width="1407" height="363" viewBox="0 0 1407 363" fill="none" xmlns="http://www.w3.org/2000/svg">
<circle cx="181.5" cy="181.5" r="179.5" fill="white" stroke="white" stroke-width="4"/>
<g style="mix-blend-mode:hard-light">
<g filter="url(#filter0_ii_566_30)">
<path d="M359 181.5C359 279.531 279.531 359 181.5 359C83.4695 359 4 279.531 4 181.5C4 83.4695 83.4695 4 181.5 4C279.531 4 359 83.4695 359 181.5Z" fill="url(#paint0_linear_566_30)"/>
</g>
<path d="M181.5 361C280.635 361 361 280.635 361 181.5C361 82.3649 280.635 2 181.5 2C82.3649 2 2 82.3649 2 181.5C2 280.635 82.3649 361 181.5 361Z" stroke="white" stroke-width="4"/>
</g>
<g filter="url(#filter1_i_566_30)">
<path d="M102 260.16V255.1H102.69C106.83 254.947 110.127 253.567 112.58 250.96C115.187 248.353 116.49 245.363 116.49 241.99V119.4C116.49 116.027 115.263 112.96 112.81 110.2C110.357 107.44 106.983 106.137 102.69 106.29H102V101.23H102.69C105.45 101.23 108.21 101.23 110.97 101.23C113.73 101.077 116.49 101 119.25 101H154.44V106.29H153.75C149.763 106.137 146.467 107.44 143.86 110.2C141.407 112.807 140.18 115.797 140.18 119.17V177.13H224.13V119.4C224.13 116.027 222.903 113.037 220.45 110.43C217.997 107.67 214.7 106.29 210.56 106.29H209.87V101.23H210.56C213.32 101.23 216.003 101.23 218.61 101.23C221.37 101.077 224.13 101 226.89 101H262.31V106.29H261.62C257.48 106.137 254.183 107.44 251.73 110.2C249.277 112.807 248.05 115.797 248.05 119.17V242.22C248.05 245.593 249.277 248.583 251.73 251.19C254.183 253.643 257.48 254.947 261.62 255.1H262.31V260.16H209.87V255.1H210.56C214.7 255.1 217.997 253.797 220.45 251.19C222.903 248.43 224.13 245.363 224.13 241.99V184.03H140.18V241.99C140.18 245.363 141.407 248.353 143.86 250.96C146.467 253.567 149.763 254.947 153.75 255.1H154.44V260.16H102Z" fill="white"/>
</g>
<path d="M429.218 235.549C424.484 235.549 420.402 233.951 416.97 230.756C413.657 227.443 412 223.242 412 218.154C412 213.065 413.657 208.983 416.97 205.906C420.402 202.711 424.484 201.114 429.218 201.114C434.069 201.114 438.152 202.711 441.465 205.906C444.778 208.983 446.435 213.065 446.435 218.154C446.435 223.242 444.778 227.443 441.465 230.756C438.152 233.951 434.069 235.549 429.218 235.549Z" fill="#1E293B"/>
<path d="M517.918 137.214C525.491 137.214 532.236 138.752 538.153 141.829C544.188 144.787 548.921 149.402 552.353 155.674C555.784 161.827 557.5 169.755 557.5 179.459V234.129H529.81V183.719C529.81 176.027 528.094 170.347 524.663 166.679C521.349 163.01 516.616 161.176 510.463 161.176C506.084 161.176 502.12 162.123 498.57 164.016C495.138 165.791 492.417 168.572 490.405 172.359C488.512 176.145 487.565 180.997 487.565 186.914V234.129H459.875V102.424H487.565V165.081L481.353 157.094C484.784 150.704 489.695 145.793 496.085 142.361C502.475 138.93 509.753 137.214 517.918 137.214Z" fill="#1E293B"/>
<path d="M623.408 235.549C613.231 235.549 604.179 233.419 596.251 229.159C588.441 224.899 582.228 219.1 577.613 211.764C573.116 204.309 570.868 195.848 570.868 186.381C570.868 176.796 573.116 168.335 577.613 160.999C582.228 153.544 588.441 147.745 596.251 143.604C604.179 139.344 613.231 137.214 623.408 137.214C633.466 137.214 642.46 139.344 650.388 143.604C658.316 147.745 664.529 153.485 669.026 160.821C673.522 168.158 675.771 176.678 675.771 186.381C675.771 195.848 673.522 204.309 669.026 211.764C664.529 219.1 658.316 224.899 650.388 229.159C642.46 233.419 633.466 235.549 623.408 235.549ZM623.408 212.829C628.023 212.829 632.165 211.764 635.833 209.634C639.501 207.504 642.401 204.486 644.531 200.581C646.661 196.558 647.726 191.825 647.726 186.381C647.726 180.82 646.661 176.086 644.531 172.181C642.401 168.276 639.501 165.259 635.833 163.129C632.165 160.999 628.023 159.934 623.408 159.934C618.793 159.934 614.651 160.999 610.983 163.129C607.315 165.259 604.356 168.276 602.108 172.181C599.978 176.086 598.913 180.82 598.913 186.381C598.913 191.825 599.978 196.558 602.108 200.581C604.356 204.486 607.315 207.504 610.983 209.634C614.651 211.764 618.793 212.829 623.408 212.829Z" fill="#1E293B"/>
<path d="M811.252 137.214C818.825 137.214 825.511 138.752 831.309 141.829C837.226 144.787 841.841 149.402 845.154 155.674C848.586 161.827 850.302 169.755 850.302 179.459V234.129H822.612V183.719C822.612 176.027 821.014 170.347 817.819 166.679C814.624 163.01 810.127 161.176 804.329 161.176C800.306 161.176 796.697 162.123 793.502 164.016C790.307 165.791 787.822 168.513 786.047 172.181C784.272 175.85 783.384 180.524 783.384 186.204V234.129H755.694V183.719C755.694 176.027 754.097 170.347 750.902 166.679C747.825 163.01 743.387 161.176 737.589 161.176C733.566 161.176 729.957 162.123 726.762 164.016C723.567 165.791 721.082 168.513 719.307 172.181C717.532 175.85 716.644 180.524 716.644 186.204V234.129H688.954V138.634H715.402V164.726L710.432 157.094C713.745 150.585 718.419 145.675 724.454 142.361C730.607 138.93 737.589 137.214 745.399 137.214C754.156 137.214 761.788 139.462 768.297 143.959C774.923 148.337 779.302 155.082 781.432 164.194L771.669 161.531C774.864 154.076 779.952 148.16 786.934 143.781C794.034 139.403 802.14 137.214 811.252 137.214Z" fill="#1E293B"/>
<path d="M917.882 235.549C906.995 235.549 897.41 233.419 889.127 229.159C880.962 224.899 874.631 219.1 870.134 211.764C865.638 204.309 863.389 195.848 863.389 186.381C863.389 176.796 865.579 168.335 869.957 160.999C874.454 153.544 880.548 147.745 888.239 143.604C895.931 139.344 904.629 137.214 914.332 137.214C923.68 137.214 932.082 139.225 939.537 143.249C947.11 147.154 953.086 152.834 957.464 160.289C961.843 167.625 964.032 176.441 964.032 186.736C964.032 187.801 963.973 189.044 963.854 190.464C963.736 191.765 963.618 193.008 963.499 194.191H885.932V178.039H948.944L938.294 182.831C938.294 177.861 937.289 173.542 935.277 169.874C933.265 166.205 930.484 163.365 926.934 161.354C923.384 159.224 919.243 158.159 914.509 158.159C909.776 158.159 905.575 159.224 901.907 161.354C898.357 163.365 895.576 166.265 893.564 170.051C891.553 173.72 890.547 178.098 890.547 183.186V187.446C890.547 192.653 891.671 197.268 893.919 201.291C896.286 205.196 899.54 208.214 903.682 210.344C907.942 212.355 912.912 213.361 918.592 213.361C923.68 213.361 928.118 212.592 931.904 211.054C935.809 209.515 939.359 207.208 942.554 204.131L957.287 220.106C952.909 225.076 947.406 228.922 940.779 231.644C934.153 234.247 926.52 235.549 917.882 235.549Z" fill="#1E293B"/>
<path d="M1016.19 235.549C1004.95 235.549 996.194 232.709 989.922 227.029C983.65 221.23 980.514 212.651 980.514 201.291V117.511H1008.2V200.936C1008.2 204.96 1009.27 208.095 1011.4 210.344C1013.53 212.474 1016.43 213.539 1020.1 213.539C1024.48 213.539 1028.2 212.355 1031.28 209.989L1038.73 229.514C1035.89 231.525 1032.46 233.064 1028.44 234.129C1024.53 235.075 1020.45 235.549 1016.19 235.549ZM965.782 162.064V140.764H1031.99V162.064H965.782Z" fill="#1E293B"/>
<path d="M1091.45 235.549C1081.27 235.549 1072.22 233.419 1064.29 229.159C1056.48 224.899 1050.27 219.1 1045.65 211.764C1041.15 204.309 1038.91 195.848 1038.91 186.381C1038.91 176.796 1041.15 168.335 1045.65 160.999C1050.27 153.544 1056.48 147.745 1064.29 143.604C1072.22 139.344 1081.27 137.214 1091.45 137.214C1101.5 137.214 1110.5 139.344 1118.43 143.604C1126.35 147.745 1132.57 153.485 1137.06 160.821C1141.56 168.158 1143.81 176.678 1143.81 186.381C1143.81 195.848 1141.56 204.309 1137.06 211.764C1132.57 219.1 1126.35 224.899 1118.43 229.159C1110.5 233.419 1101.5 235.549 1091.45 235.549ZM1091.45 212.829C1096.06 212.829 1100.2 211.764 1103.87 209.634C1107.54 207.504 1110.44 204.486 1112.57 200.581C1114.7 196.558 1115.76 191.825 1115.76 186.381C1115.76 180.82 1114.7 176.086 1112.57 172.181C1110.44 168.276 1107.54 165.259 1103.87 163.129C1100.2 160.999 1096.06 159.934 1091.45 159.934C1086.83 159.934 1082.69 160.999 1079.02 163.129C1075.35 165.259 1072.39 168.276 1070.15 172.181C1068.02 176.086 1066.95 180.82 1066.95 186.381C1066.95 191.825 1068.02 196.558 1070.15 200.581C1072.39 204.486 1075.35 207.504 1079.02 209.634C1082.69 211.764 1086.83 212.829 1091.45 212.829Z" fill="#1E293B"/>
<path d="M1213.44 235.549C1205.39 235.549 1198.35 233.774 1192.31 230.224C1186.28 226.674 1181.55 221.29 1178.11 214.071C1174.8 206.735 1173.15 197.505 1173.15 186.381C1173.15 175.14 1174.74 165.91 1177.94 158.691C1181.13 151.473 1185.75 146.089 1191.78 142.539C1197.82 138.989 1205.04 137.214 1213.44 137.214C1222.43 137.214 1230.48 139.285 1237.58 143.426C1244.8 147.45 1250.48 153.13 1254.62 160.466C1258.88 167.803 1261.01 176.441 1261.01 186.381C1261.01 196.44 1258.88 205.137 1254.62 212.474C1250.48 219.81 1244.8 225.49 1237.58 229.514C1230.48 233.537 1222.43 235.549 1213.44 235.549ZM1156.99 268.564V138.634H1183.44V158.159L1182.91 186.559L1184.68 214.781V268.564H1156.99ZM1208.65 212.829C1213.26 212.829 1217.34 211.764 1220.89 209.634C1224.56 207.504 1227.46 204.486 1229.59 200.581C1231.84 196.558 1232.96 191.825 1232.96 186.381C1232.96 180.82 1231.84 176.086 1229.59 172.181C1227.46 168.276 1224.56 165.259 1220.89 163.129C1217.34 160.999 1213.26 159.934 1208.65 159.934C1204.03 159.934 1199.89 160.999 1196.22 163.129C1192.55 165.259 1189.65 168.276 1187.52 172.181C1185.39 176.086 1184.33 180.82 1184.33 186.381C1184.33 191.825 1185.39 196.558 1187.52 200.581C1189.65 204.486 1192.55 207.504 1196.22 209.634C1199.89 211.764 1204.03 212.829 1208.65 212.829Z" fill="#1E293B"/>
<path d="M1274.22 234.129V138.634H1301.91V234.129H1274.22ZM1288.06 125.321C1282.98 125.321 1278.83 123.842 1275.64 120.884C1272.44 117.925 1270.85 114.257 1270.85 109.879C1270.85 105.5 1272.44 101.832 1275.64 98.8738C1278.83 95.9154 1282.98 94.4363 1288.06 94.4363C1293.15 94.4363 1297.29 95.8563 1300.49 98.6963C1303.68 101.418 1305.28 104.968 1305.28 109.346C1305.28 113.961 1303.68 117.807 1300.49 120.884C1297.41 123.842 1293.27 125.321 1288.06 125.321Z" fill="#1E293B"/>
<path d="M1380.86 234.129V215.491L1379.08 211.409V178.039C1379.08 172.122 1377.25 167.507 1373.58 164.194C1370.03 160.88 1364.53 159.224 1357.07 159.224C1351.98 159.224 1346.95 160.052 1341.98 161.709C1337.13 163.247 1332.99 165.377 1329.56 168.099L1319.62 148.751C1324.83 145.083 1331.1 142.243 1338.43 140.231C1345.77 138.22 1353.23 137.214 1360.8 137.214C1375.35 137.214 1386.66 140.645 1394.7 147.509C1402.75 154.372 1406.77 165.081 1406.77 179.636V234.129H1380.86ZM1351.75 235.549C1344.29 235.549 1337.9 234.306 1332.58 231.821C1327.25 229.218 1323.17 225.727 1320.33 221.349C1317.49 216.97 1316.07 212.06 1316.07 206.616C1316.07 200.936 1317.43 195.966 1320.15 191.706C1322.99 187.446 1327.43 184.133 1333.46 181.766C1339.5 179.281 1347.37 178.039 1357.07 178.039H1382.45V194.191H1360.09C1353.58 194.191 1349.08 195.256 1346.6 197.386C1344.23 199.516 1343.05 202.179 1343.05 205.374C1343.05 208.924 1344.41 211.764 1347.13 213.894C1349.97 215.905 1353.82 216.911 1358.67 216.911C1363.28 216.911 1367.43 215.846 1371.09 213.716C1374.76 211.468 1377.43 208.214 1379.08 203.954L1383.34 216.734C1381.33 222.887 1377.66 227.561 1372.34 230.756C1367.01 233.951 1360.15 235.549 1351.75 235.549Z" fill="#1E293B"/>
<defs>
<filter id="filter0_ii_566_30" x="0" y="-4" width="365" height="371" filterUnits="userSpaceOnUse" color-interpolation-filters="sRGB">
<feFlood flood-opacity="0" result="BackgroundImageFix"/>
<feBlend mode="normal" in="SourceGraphic" in2="BackgroundImageFix" result="shape"/>
<feColorMatrix in="SourceAlpha" type="matrix" values="0 0 0 0 0 0 0 0 0 0 0 0 0 0 0 0 0 0 127 0" result="hardAlpha"/>
<feOffset dy="4"/>
<feGaussianBlur stdDeviation="28.3"/>
<feComposite in2="hardAlpha" operator="arithmetic" k2="-1" k3="1"/>
<feColorMatrix type="matrix" values="0 0 0 0 1 0 0 0 0 1 0 0 0 0 1 0 0 0 0.82 0"/>
<feBlend mode="normal" in2="shape" result="effect1_innerShadow_566_30"/>
<feColorMatrix in="SourceAlpha" type="matrix" values="0 0 0 0 0 0 0 0 0 0 0 0 0 0 0 0 0 0 127 0" result="hardAlpha"/>
<feOffset dx="2" dy="-4"/>
<feGaussianBlur stdDeviation="21.75"/>
<feComposite in2="hardAlpha" operator="arithmetic" k2="-1" k3="1"/>
<feColorMatrix type="matrix" values="0 0 0 0 0.195 0 0 0 0 0.195 0 0 0 0 0.195 0 0 0 0.83 0"/>
<feBlend mode="normal" in2="effect1_innerShadow_566_30" result="effect2_innerShadow_566_30"/>
</filter>
<filter id="filter1_i_566_30" x="102" y="101" width="162.31" height="161.16" filterUnits="userSpaceOnUse" color-interpolation-filters="sRGB">
<feFlood flood-opacity="0" result="BackgroundImageFix"/>
<feBlend mode="normal" in="SourceGraphic" in2="BackgroundImageFix" result="shape"/>
<feColorMatrix in="SourceAlpha" type="matrix" values="0 0 0 0 0 0 0 0 0 0 0 0 0 0 0 0 0 0 127 0" result="hardAlpha"/>
<feOffset dx="2" dy="2"/>
<feGaussianBlur stdDeviation="1.7"/>
<feComposite in2="hardAlpha" operator="arithmetic" k2="-1" k3="1"/>
<feColorMatrix type="matrix" values="0 0 0 0 0.155556 0 0 0 0 0.803704 0 0 0 0 0.933333 0 0 0 0.25 0"/>
<feBlend mode="normal" in2="shape" result="effect1_innerShadow_566_30"/>
</filter>
<linearGradient id="paint0_linear_566_30" x1="35.5" y1="4.00001" x2="283.5" y2="390.5" gradientUnits="userSpaceOnUse">
<stop stop-color="#131F84"/>
<stop offset="1" stop-color="#1792A0"/>
</linearGradient>
</defs>
</svg>
